<mxfile host="app.diagrams.net" modified="2023-07-22T12:35:11.786Z" agent="Mozilla/5.0 (Macintosh; Intel Mac OS X 10_15_7) AppleWebKit/605.1.15 (KHTML, like Gecko) Version/16.4 Safari/605.1.15" version="21.6.5" etag="bRYTvqOI5EXcuq9jTXSn" type="github">
  <diagram name="Страница 1" id="QnEM4eu22naJHXsKes8O">
    <mxGraphModel>
      <root>
        <mxCell id="0" />
        <mxCell id="1" parent="0" />
      </root>
    </mxGraphModel>
  </diagram>
</mxfile>
